<svg xmlns="http://www.w3.org/2000/svg" viewBox="0 0 512 512">
  <defs>
    <linearGradient id="bg" x1="0" y1="0" x2="1" y2="1">
      <stop offset="0%" stop-color="#0f2a41"/>
      <stop offset="100%" stop-color="#1f4f71"/>
    </linearGradient>
  </defs>
  <rect width="512" height="512" rx="96" fill="url(#bg)"/>
  <circle cx="256" cy="276" r="166" fill="#f7f3e8" stroke="#10263a" stroke-width="20"/>
  <path d="M256 110 A166 166 0 0 1 395 187 L256 276Z" fill="#f25f5c"/>
  <path d="M395 187 A166 166 0 0 1 397 360 L256 276Z" fill="#247ba0"/>
  <path d="M397 360 A166 166 0 0 1 253 442 L256 276Z" fill="#70c1b3"/>
  <path d="M253 442 A166 166 0 0 1 111 362 L256 276Z" fill="#ffe066"/>
  <path d="M111 362 A166 166 0 0 1 116 188 L256 276Z" fill="#ff9f1c"/>
  <path d="M116 188 A166 166 0 0 1 256 110 L256 276Z" fill="#2ec4b6"/>
  <circle cx="256" cy="276" r="28" fill="#10263a"/>
  <path d="M256 66 218 132h76z" fill="#ffffff"/>
</svg>
